HIERARCHY
ROOT Hips
{
	OFFSET 16.857300 39.481499 -7.567760 
	CHANNELS 6 Xposition Yposition Zposition Zrotation Xrotation Yrotation
	JOINT LeftHip
	{
		OFFSET 3.430000 0.000000 0.000000 
		CHANNELS 6 Xposition Yposition Zposition Zrotation Xrotation Yrotation
		JOINT LeftKnee
		{
			OFFSET 0.000000 -18.469999 0.000000 
			CHANNELS 6 Xposition Yposition Zposition Zrotation Xrotation Yrotation
			JOINT LeftAnkle
			{
				OFFSET 0.000000 -17.950001 0.000000 
				CHANNELS 6 Xposition Yposition Zposition Zrotation Xrotation Yrotation
				End Site
				{
					OFFSET 0.000000 -3.120000 0.000000 
				}
			}
		}
	}
	JOINT RightHip
	{
		OFFSET -3.430000 0.000000 0.000000 
		CHANNELS 6 Xposition Yposition Zposition Zrotation Xrotation Yrotation
		JOINT RightKnee
		{
			OFFSET 0.000000 -18.469999 0.000000 
			CHANNELS 6 Xposition Yposition Zposition Zrotation Xrotation Yrotation
			JOINT RightAnkle
			{
				OFFSET 0.000000 -17.950001 0.000000 
				CHANNELS 6 Xposition Yposition Zposition Zrotation Xrotation Yrotation
				End Site
				{
					OFFSET 0.000000 -3.120000 0.000000 
				}
			}
		}
	}
	JOINT Chest
	{
		OFFSET 0.000000 4.570000 0.000000 
		CHANNELS 6 Xposition Yposition Zposition Zrotation Xrotation Yrotation
		JOINT CS_BVH
		{
			OFFSET 0.000000 6.570000 0.000000 
			CHANNELS 6 Xposition Yposition Zposition Zrotation Xrotation Yrotation
			JOINT LeftCollar
			{
				OFFSET 1.060000 4.190000 1.760000 
				CHANNELS 6 Xposition Yposition Zposition Zrotation Xrotation Yrotation
				JOINT LeftShoulder
				{
					OFFSET 5.810000 0.000000 0.000000 
					CHANNELS 6 Xposition Yposition Zposition Zrotation Xrotation Yrotation
					JOINT LeftElbow
					{
						OFFSET 0.000000 -12.080000 0.000000 
						CHANNELS 6 Xposition Yposition Zposition Zrotation Xrotation Yrotation
						JOINT LeftWrist
						{
							OFFSET 0.000000 -9.820000 0.000000 
							CHANNELS 6 Xposition Yposition Zposition Zrotation Xrotation Yrotation
							End Site
							{
								OFFSET 0.000000 -7.370000 0.000000 
							}
						}
					}
				}
			}
			JOINT RightCollar
			{
				OFFSET -1.060000 4.190000 1.760000 
				CHANNELS 6 Xposition Yposition Zposition Zrotation Xrotation Yrotation
				JOINT RightShoulder
				{
					OFFSET -6.060000 0.000000 0.000000 
					CHANNELS 6 Xposition Yposition Zposition Zrotation Xrotation Yrotation
					JOINT RightElbow
					{
						OFFSET 0.000000 -11.080000 0.000000 
						CHANNELS 6 Xposition Yposition Zposition Zrotation Xrotation Yrotation
						JOINT RightWrist
						{
							OFFSET 0.000000 -9.820000 0.000000 
							CHANNELS 6 Xposition Yposition Zposition Zrotation Xrotation Yrotation
							End Site
							{
								OFFSET 0.000000 -7.140010 0.000000 
							}
						}
					}
				}
			}
			JOINT Neck
			{
				OFFSET 0.000000 4.050000 0.000000 
				CHANNELS 6 Xposition Yposition Zposition Zrotation Xrotation Yrotation
				JOINT Head
				{
					OFFSET 0.000000 5.190000 0.000000 
					CHANNELS 6 Xposition Yposition Zposition Zrotation Xrotation Yrotation
					End Site
					{
						OFFSET 0.000000 4.140010 0.000000 
					}
				}
			}
		}
	}
}
MOTION
Frames: 4
Frame Time: 0.033333
30.421303 36.231400 4.714010 1.218680 -4.656500 -8.402530 3.430000 -0.000000 0.000000 7.742180 -15.580600 15.975100 0.000000 -18.469999 -0.000000 13.241100 49.599701 -13.385000 0.000000 -17.950001 -0.000000 0.706515 -8.316370 -0.277793 -3.430000 0.000000 0.000000 -16.953400 -26.571501 -17.097401 0.000000 -18.469999 -0.000000 -11.034400 55.158699 13.676700 0.000000 -17.950001 -0.000000 -1.750190 -9.518670 0.435741 -0.000000 4.570000 0.000000 -5.914520 13.169300 0.451958 -0.000000 6.570000 0.000000 5.750410 36.041599 -2.906230 1.060000 4.190000 1.760000 -4.655820 -0.566582 -3.568960 5.810000 -0.000000 0.000000 -10.129400 0.032509 -11.738700 -0.000000 -12.080000 -0.000000 -138.673996 -54.440800 -124.072998 -0.000000 -9.820000 0.000000 6.167580 -0.753914 -8.229310 -1.060000 4.190000 1.760000 3.202860 -0.681063 5.476090 -6.060000 0.000000 0.000000 -7.979000 -19.113100 -27.135799 -0.000000 -11.080000 -0.000000 117.744003 -64.352203 105.709000 -0.000000 -9.820000 -0.000000 -4.771340 -0.332162 8.898600 -0.000000 4.050000 0.000000 -2.128140 -30.461901 -2.396840 -0.000000 5.190000 0.000000 3.427060 -18.170500 -2.535410 
30.553497 36.516106 4.679650 1.187982 -4.274101 -7.472230 3.430000 -0.000000 0.000000 7.378520 -15.299800 15.759400 0.000000 -18.469999 -0.000000 12.634200 47.746799 -12.712200 0.000000 -17.950001 -0.000000 0.753187 -8.161500 -0.277646 -3.430000 0.000000 0.000000 -15.275300 -26.266800 -16.574400 0.000000 -18.469999 -0.000000 -10.565500 52.582901 13.037600 0.000000 -17.950001 -0.000000 -1.746330 -9.531680 0.434748 -0.000000 4.570000 0.000000 -5.521210 13.432100 0.045028 -0.000000 6.570000 0.000000 6.469640 36.091801 -3.580410 1.060000 4.190000 1.760000 -4.564400 -0.573764 -3.530300 5.810000 -0.000000 0.000000 -10.202000 -1.006390 -11.201700 -0.000000 -12.080000 -0.000000 -138.914993 -54.124699 -124.182999 -0.000000 -9.820000 0.000000 6.032320 -0.518785 -7.773740 -1.060000 4.190000 1.760000 3.164120 -0.683165 5.358620 -6.060000 0.000000 0.000000 -6.904810 -18.187401 -26.463699 -0.000000 -11.080000 -0.000000 117.929001 -64.399002 106.526001 -0.000000 -9.820000 -0.000000 -4.821060 -0.193278 8.631140 -0.000000 4.050000 0.000000 -1.529640 -30.231400 -2.990050 -0.000000 5.190000 0.000000 3.477100 -18.688900 -3.060080 
30.593903 36.637703 4.701700 1.193540 -4.108128 -6.242818 3.430000 -0.000000 0.000000 6.855510 -14.849200 15.257600 0.000000 -18.469999 -0.000000 12.394400 46.022301 -12.265500 0.000000 -17.950001 -0.000000 0.770524 -8.037240 -0.277355 -3.430000 0.000000 0.000000 -14.224000 -25.331900 -16.422800 0.000000 -18.469999 -0.000000 -10.157100 50.501598 12.534000 0.000000 -17.950001 -0.000000 -1.740880 -9.571930 0.433918 -0.000000 4.570000 0.000000 -5.257420 13.590200 -0.331736 -0.000000 6.570000 0.000000 7.192360 36.087200 -4.266780 1.060000 4.190000 1.760000 -4.437010 -0.584043 -3.470330 5.810000 -0.000000 0.000000 -10.421700 -1.859290 -11.001600 -0.000000 -12.080000 -0.000000 -138.824005 -54.062801 -124.074997 -0.000000 -9.820000 0.000000 5.964660 -0.334449 -7.306550 -1.060000 4.190000 1.760000 3.298910 -0.674360 5.408410 -6.060000 0.000000 0.000000 -6.382840 -16.988800 -26.107100 -0.000000 -11.080000 -0.000000 117.759003 -64.426201 106.903999 -0.000000 -9.820000 -0.000000 -4.797370 -0.081759 8.452070 -0.000000 4.050000 0.000000 -0.831111 -29.580099 -4.457480 -0.000000 5.190000 0.000000 3.866020 -19.049299 -4.444680 
30.556099 36.648994 4.755110 1.136260 -4.100361 -5.041020 3.430000 -0.000000 0.000000 6.487300 -14.430400 14.619300 0.000000 -18.469999 -0.000000 12.559300 44.808899 -12.100000 0.000000 -17.950001 -0.000000 0.773785 -7.927670 -0.276942 -3.430000 0.000000 0.000000 -13.507100 -24.184799 -16.386400 0.000000 -18.469999 -0.000000 -9.916930 48.954601 12.211400 0.000000 -17.950001 -0.000000 -1.732440 -9.617420 0.433222 -0.000000 4.570000 0.000000 -5.055100 13.814100 -0.527884 -0.000000 6.570000 0.000000 7.878250 35.797298 -4.748560 1.060000 4.190000 1.760000 -4.339050 -0.587712 -3.427390 5.810000 -0.000000 0.000000 -10.767400 -2.442500 -11.320500 -0.000000 -12.080000 -0.000000 -138.542007 -54.228001 -123.857002 -0.000000 -9.820000 0.000000 6.062380 -0.264011 -6.794910 -1.060000 4.190000 1.760000 3.465680 -0.660015 5.496940 -6.060000 0.000000 0.000000 -6.270350 -15.552600 -26.033701 -0.000000 -11.080000 -0.000000 117.690002 -64.400299 107.117996 -0.000000 -9.820000 -0.000000 -4.655170 0.018020 8.359040 -0.000000 4.050000 0.000000 0.347053 -28.018801 -7.389570 -0.000000 5.190000 0.000000 4.224890 -19.909000 -7.180090 
